<!-- Generated by IcoMoon.io -->
<svg version="1.1" xmlns="http://www.w3.org/2000/svg" width="16" height="32" viewBox="0 0 16 32">
<title>logo</title>
<path d="M2 0c-0.53 0-1.039 0.211-1.414 0.586s-0.586 0.884-0.586 1.414v28c0 0.53 0.211 1.039 0.586 1.414s0.884 0.586 1.414 0.586h12c0.53 0 1.039-0.211 1.414-0.586s0.586-0.884 0.586-1.414v-28c0-0.53-0.211-1.039-0.586-1.414s-0.884-0.586-1.414-0.586h-12zM3 28c0.265 0 0.52 0.105 0.707 0.293s0.293 0.442 0.293 0.707-0.105 0.52-0.293 0.707c-0.188 0.188-0.442 0.293-0.707 0.293s-0.52-0.105-0.707-0.293c-0.188-0.187-0.293-0.442-0.293-0.707s0.105-0.52 0.293-0.707c0.188-0.188 0.442-0.293 0.707-0.293v0zM7 28c0.265 0 0.52 0.105 0.707 0.293s0.293 0.442 0.293 0.707-0.105 0.52-0.293 0.707c-0.188 0.188-0.442 0.293-0.707 0.293s-0.52-0.105-0.707-0.293c-0.188-0.187-0.293-0.442-0.293-0.707s0.105-0.52 0.293-0.707c0.188-0.188 0.442-0.293 0.707-0.293v0zM2 3c0-0.265 0.105-0.52 0.293-0.707s0.442-0.293 0.707-0.293h10c0.265 0 0.52 0.105 0.707 0.293s0.293 0.442 0.293 0.707-0.105 0.52-0.293 0.707c-0.187 0.188-0.442 0.293-0.707 0.293h-10c-0.265 0-0.52-0.105-0.707-0.293s-0.293-0.442-0.293-0.707zM3 6h10c0.265 0 0.52 0.105 0.707 0.293s0.293 0.442 0.293 0.707-0.105 0.52-0.293 0.707c-0.187 0.188-0.442 0.293-0.707 0.293h-10c-0.265 0-0.52-0.105-0.707-0.293s-0.293-0.442-0.293-0.707c0-0.265 0.105-0.52 0.293-0.707s0.442-0.293 0.707-0.293v0z"></path>
</svg>
