<!-- Generated by IcoMoon.io -->
<svg version="1.1" xmlns="http://www.w3.org/2000/svg" width="35" height="32" viewBox="0 0 35 32">
<title>robot</title>
<path d="M17.333 0.444c0.825 0 1.616 0.328 2.2 0.911s0.911 1.375 0.911 2.2c0 1.151-0.622 2.162-1.556 2.691v1.976h1.556c2.888 0 5.658 1.147 7.7 3.189s3.189 4.812 3.189 7.7h1.555c0.413 0 0.808 0.164 1.1 0.456s0.456 0.687 0.456 1.1v4.667c0 0.413-0.164 0.808-0.456 1.1s-0.687 0.456-1.1 0.456h-1.555v1.556c0 0.825-0.328 1.616-0.911 2.2s-1.375 0.911-2.2 0.911h-21.778c-0.825 0-1.616-0.328-2.2-0.911s-0.911-1.375-0.911-2.2v-1.556h-1.556c-0.413 0-0.808-0.164-1.1-0.456s-0.456-0.687-0.456-1.1v-4.667c0-0.413 0.164-0.808 0.456-1.1s0.687-0.456 1.1-0.456h1.556c0-2.888 1.147-5.657 3.189-7.7s4.812-3.189 7.7-3.189h1.556v-1.976c-0.933-0.529-1.556-1.54-1.556-2.691 0-0.825 0.328-1.616 0.911-2.2s1.375-0.911 2.2-0.911zM10.333 17.555c-1.031 0-2.021 0.41-2.75 1.139s-1.139 1.719-1.139 2.75c0 1.031 0.41 2.021 1.139 2.75s1.718 1.139 2.75 1.139c1.031 0 2.021-0.41 2.75-1.139s1.139-1.718 1.139-2.75c0-1.031-0.41-2.021-1.139-2.75s-1.718-1.139-2.75-1.139zM24.333 17.555c-1.031 0-2.021 0.41-2.75 1.139s-1.139 1.719-1.139 2.75c0 1.031 0.41 2.021 1.139 2.75s1.718 1.139 2.75 1.139c1.031 0 2.021-0.41 2.75-1.139s1.139-1.718 1.139-2.75c0-1.031-0.41-2.021-1.139-2.75s-1.719-1.139-2.75-1.139z"></path>
</svg>
